<svg xmlns="http://www.w3.org/2000/svg" viewBox="0 0 293.26 60.76"><defs><style>.cls-1{fill:#585757;}.cls-2{fill:#f2879b;}</style></defs><title>アセット 1</title><g id="レイヤー_2" data-name="レイヤー 2"><g id="レイヤー_1-2" data-name="レイヤー 1"><path class="cls-1" d="M12.38,4.45a.81.81,0,0,1,.85.9c0,.75-.57.8-1,.84a12.11,12.11,0,0,0-3.22.73c-.46.23-1.69,1-1.69,2.18,0,.68.22,1.54,3,1.74a.78.78,0,0,1,.82.84.87.87,0,0,1-.89,1,9.35,9.35,0,0,1-2.76-.55,2.92,2.92,0,0,1-2-2.77A3,3,0,0,1,6.65,6.93C6,7,2.42,7.54,2.26,7.54a.86.86,0,0,1-.88-.9c0-.19.05-.79.9-.88l2.94-.34c1.47-.24,3.45-3.16,4-4a1,1,0,0,1,.85-.55.92.92,0,0,1,.92.92,3.53,3.53,0,0,1-.83,1.42,10.24,10.24,0,0,1-1.6,1.69c.61,0,3.59-.47,3.82-.47m-7.53,0c-.43,0-.51-.14-.95-.84A8.75,8.75,0,0,0,3,2.4a.83.83,0,0,1-.2-.54A.8.8,0,0,1,3.64,1C4,1,4.22,1,5.14,2.4a3.09,3.09,0,0,1,.55,1.21.85.85,0,0,1-.84.88"/><path class="cls-1" d="M25.82,7.69c0,4.64-6.27,5-6.58,5a1,1,0,0,1-1.1-1c0-.82.7-.87,1.21-.9a6.57,6.57,0,0,0,3.88-1.5,2.41,2.41,0,0,0,.62-1.66c0-1.38-1-1.91-2.7-1.91-1.21,0-1.75.19-3.92.94a2.21,2.21,0,0,1-.65.15.92.92,0,0,1-.85-1c0-.69.52-.85,1.31-1.09A14.55,14.55,0,0,1,21.73,4c.22,0,4.09.06,4.09,3.68m-7-7a11.78,11.78,0,0,1,1.37.42,13.69,13.69,0,0,0,3,.54.82.82,0,0,1,.82.85.86.86,0,0,1-.9.88,14.76,14.76,0,0,1-4.48-1,.88.88,0,0,1-.65-.88.91.91,0,0,1,.88-.86"/><path class="cls-1" d="M30.55,11.81a1,1,0,0,1-.91.7,1,1,0,0,1-1-.94,1.63,1.63,0,0,1,.27-.77,21.33,21.33,0,0,0,1.88-6l-.93,0c-.34,0-1.29,0-1.29-.91a.77.77,0,0,1,.55-.78C29.36,3,30.67,3,30.93,3c0-.31.09-1.57.15-1.77a.82.82,0,0,1,.84-.53.81.81,0,0,1,.89.86c0,.36-.06,1-.08,1.33.22,0,.85-.08,1-.08a.84.84,0,0,1,.87.84c0,.84-.69.88-2.07,1a30.22,30.22,0,0,1-2,7.18m4.32-2.49c.08.83.13,1.44,2.66,1.44.28,0,1.55-.1,1.81-.1a.87.87,0,0,1,.92.93,1,1,0,0,1-.44.85,7.14,7.14,0,0,1-2,.18c-2.13,0-3-.21-3.83-.91a3,3,0,0,1-.83-2.15c0-1.05.76-1.07.82-1.07.33,0,.83,0,.9.83M40.16,4.8a.81.81,0,0,1-.92.88c-.1,0-2.22-.12-2.63-.12-1.06,0-1.08,0-1.29-.1a.83.83,0,0,1-.41-.74A.88.88,0,0,1,35.35,4c.29-.15.39-.15,2.15-.15,2.06,0,2.66.23,2.66,1m-2.4-4c.76,0,1,1.59,1,1.7a.55.55,0,0,1-.52.57c-.38,0-.47-.19-.78-1s-.27-.77-.24-1a.47.47,0,0,1,.5-.36m2.6,1a.52.52,0,0,1-.53.56c-.31,0-.39-.15-.59-.48A4.21,4.21,0,0,1,38.67.66c0-.38.43-.49.67-.44.43.11,1,1.22,1,1.54"/><path class="cls-1" d="M49.93,9.56c0,.31,0,.86.79.86.6,0,1.26-.27,1.52-2.4,0-.11,0-.57,0-.67a.87.87,0,0,1,.9-.66c.79,0,.93.61.93,1s-.19,4.73-3.65,4.73c-2.32,0-2.32-2-2.32-2.67V8.36c0-.49,0-1.09-.55-1.09s-2.14.67-3.17,3c-.12.27-.56,1.44-.67,1.67a.91.91,0,0,1-.83.53c-.3,0-1-.16-1-.83a2.65,2.65,0,0,1,.23-.93L45.47,2c.26-.67.43-1.09,1-1.09.4,0,1.1.3,1.1.88a2.4,2.4,0,0,1-.27.92l-1.61,4A3.1,3.1,0,0,1,48,5.56c1.91,0,1.91,1.86,1.91,2.42Z"/><path class="cls-1" d="M63.41,11.09c0,.74,0,1.44-.95,1.44s-1-.63-1-1.44V6.49a17.26,17.26,0,0,1-4.8,1.76.93.93,0,0,1-.88-1c0-.71.52-.84,1-1a14.69,14.69,0,0,0,7.56-4.41,7.62,7.62,0,0,1,.55-.65A.88.88,0,0,1,65.42,1a1.07,1.07,0,0,1,1,1,1,1,0,0,1-.3.67,17.4,17.4,0,0,1-2.7,2.54Z"/><path class="cls-1" d="M78.92,5.84c.73,0,1.44,0,1.44.93s-.71.94-1.44.94H70.43c-.73,0-1.44,0-1.44-.94s.71-.93,1.44-.93Z"/><path class="cls-1" d="M85,11.87c-.85,0-2.07-.08-2.07-1.93V3.61C83,1.74,84.2,1.67,85,1.67h6.36c.85,0,2.07.1,2.07,1.94V9.94c0,1.87-1.25,1.93-2.07,1.93Zm.54-8.4c-.66,0-.7.26-.7.76V9.3c0,.49,0,.75.7.75H90.9c.67,0,.69-.25.69-.75V4.23c0-.5,0-.76-.69-.76Z"/><path class="cls-1" d="M106,5.84c.73,0,1.43,0,1.43.93s-.7.94-1.43.94h-8.5c-.73,0-1.43,0-1.43-.94s.7-.93,1.43-.93Z"/><path class="cls-1" d="M120.39,10c0,1.31-.68,1.75-1.72,1.75h-7.26c-.71,0-1.44,0-1.44-.92s.73-.9,1.44-.9h6.4c.7,0,.78,0,.78-.69V4.78c0-.73-.11-.73-.94-.73h-6.24c-.74,0-1.44,0-1.44-.92s.64-.86,1.44-.86h7.33A9.72,9.72,0,0,1,118.23,1a.49.49,0,0,1,.49-.5c.62,0,1.23,1.3,1.23,1.74a.55.55,0,0,1-.09.32,1.16,1.16,0,0,1,.53,1.07Zm1.09-8.28a.49.49,0,0,1-.5.51c-.34,0-.4-.13-.63-.57a6.87,6.87,0,0,1-.56-1.24.46.46,0,0,1,.57-.42c.53.08,1.12,1.24,1.12,1.72"/><path class="cls-1" d="M127.11,6.77a1.56,1.56,0,1,1-1.55-1.55,1.57,1.57,0,0,1,1.55,1.55"/><path class="cls-1" d="M137.84,11.24c0,.74,0,1.44-.93,1.44S136,12,136,11.24V8.61a18.91,18.91,0,0,1-4.06,1.33.84.84,0,0,1-.82-.93c0-.68.57-.82,1.07-.95a19.07,19.07,0,0,0,5.28-2.29c.42-.3,1.46-1.07,1.46-1.26s0,0-.2,0h-5.18c-.74,0-1.44,0-1.44-.84s.72-.84,1.44-.84H136v-.5c0-.71,0-1.45.93-1.45s.92.74.92,1.45v.5h2.24c.63,0,1.18.23,1.18,1,0,1-1.18,2.18-2.1,2.91a21.92,21.92,0,0,1,2.75,1.59c.58.45.73.67.73,1a.87.87,0,0,1-.83.9c-.27,0-.28,0-1.35-.71A20.15,20.15,0,0,0,137.84,8Z"/><path class="cls-1" d="M147.48,8.19c-.59,0-.72-.34-1-1a7.94,7.94,0,0,1-.65-1.86.72.72,0,0,1,.78-.74c.52,0,.58.12,1.22,1.54.43,1,.43,1.14.43,1.35a.76.76,0,0,1-.78.76M153.34,10a7.41,7.41,0,0,1-4.62,2.46.82.82,0,0,1-.9-.88c0-.69.51-.8.82-.86A5.11,5.11,0,0,0,152.92,7a13.59,13.59,0,0,0,.36-2c0-.3.12-.85.84-.85A.8.8,0,0,1,155,5a8.59,8.59,0,0,1-1.64,5M150.1,7.19c-.52,0-.59-.19-1-1.26l-.43-1.08a1.51,1.51,0,0,1-.11-.51.8.8,0,0,1,.8-.79c.61,0,.8.49.93.83a7.21,7.21,0,0,1,.64,2.11.8.8,0,0,1-.83.7"/><path class="cls-1" d="M160.9,11.22c0,.73,0,1.44-.93,1.44s-1-.63-1-1.44V2.32c0-.74,0-1.45.95-1.45s1,.64,1,1.45V4.57A27.66,27.66,0,0,1,165.27,6c.69.31,1.15.54,1.15,1.12a.91.91,0,0,1-.89,1c-.16,0-.22,0-1.33-.52a23.55,23.55,0,0,0-3.3-1.15Z"/><path class="cls-2" d="M4.72,31.33c-1.93,0-3.67,0-3.67-2.43,0-2.7,1.52-2.7,3.67-2.7h2v-4c0-1.92,0-3.66,2.47-3.66,2.8,0,2.8,1.42,2.8,3.66v4h1.05c1.88,0,3.66,0,3.66,2.43,0,2.7-1.51,2.7-3.66,2.7H12v3a26.64,26.64,0,0,0,4.07,5.08c1.05,1.1,1.33,1.69,1.33,2.38,0,1.37-.73,2.75-2.29,2.75-1.23,0-1.56-.37-3.11-2.2v14C12,58.71,12,60,9.57,60c-2.84,0-2.84-1.38-2.84-3.67v-13a25.19,25.19,0,0,1-2,3.16,2.05,2.05,0,0,1-2,1.1A2.62,2.62,0,0,1,0,44.84c0-.6,0-1.15,1.6-3.39a47.62,47.62,0,0,0,5-10.12ZM37.41,19.61c1.6,0,3.48,1.42,3.48,4.35V54.68c0,2.38-1.06,4.35-3.48,4.35H21.57a4,4,0,0,1-3.71-4.35V24a4.07,4.07,0,0,1,3.71-4.35ZM35.3,30.14V25.52a.83.83,0,0,0-.87-.87H24.08a.83.83,0,0,0-.87.87v4.62ZM23.21,41.59H35.3V35.45H23.21Zm0,5.26V53a.84.84,0,0,0,.87.87H34.43A.83.83,0,0,0,35.3,53V46.85Z"/><path class="cls-2" d="M57,25.56c1.88,0,3.66,0,3.66,2.43S58.75,30.37,57,30.37H47.48c-2,0-3.66,0-3.66-2.38s1.74-2.43,3.66-2.43Zm3,29.54c0,3.79-2.71,3.84-4.4,3.84H49.82c-1.79,0-4.44-.09-4.44-3.8V48.27c0-3.75,2.74-3.8,4.44-3.8h5.72c1.74,0,4.4.09,4.4,3.8ZM55.81,19.43c1.7,0,3.62,0,3.62,2.1s-2.15,2.2-3.62,2.2H49.32c-1.61,0-3.62,0-3.62-2.15s2-2.15,3.62-2.15Zm0,12.77c1.65,0,3.67,0,3.67,2.15s-2,2.16-3.67,2.16H49.32c-1.66,0-3.62,0-3.62-2.16s2-2.15,3.62-2.15Zm0,6.14c1.65,0,3.67,0,3.67,2.15s-2,2.15-3.67,2.15H49.32c-1.89,0-3.62,0-3.62-2.2s2-2.1,3.62-2.1ZM55,50.43c0-1.06,0-1.2-1.1-1.2H51.42c-1.1,0-1.1.14-1.1,1.2V52.9c0,1.09,0,1.19,1.1,1.19h2.43C55,54.09,55,54,55,52.9Zm8.29,9.7a2.71,2.71,0,0,1-2.66-2.74c0-1.47.74-1.84,2.84-2.89,7.19-3.57,7.41-9.3,7.55-14.79a2.23,2.23,0,0,1,2.39-2.15c2.65,0,2.65,1.79,2.65,3.25,0,7.28,1.47,10.85,6.09,13.46,3.16,1.79,3.48,1.92,3.48,3.3A2.52,2.52,0,0,1,83,60.27c-1.56,0-6.78-2.34-9.53-7.42-2.57,3.89-7.83,7.28-10.16,7.28m-.05-21.2a2.52,2.52,0,0,1-2.56-2.61c0-1.64,1.19-2.1,2.2-2.52,6.32-2.42,7.87-5.49,8.05-12.91,0-.87.09-2.7,2.43-2.7,2.61,0,2.7,1.69,2.7,3.25,0,4.81,1,8.11,6.78,11.72,2.74,1.7,3,1.92,3,3.16a2.71,2.71,0,0,1-2.52,2.75c-2,0-7.19-3.34-9.43-7.24a15.25,15.25,0,0,1-10.67,7.1m-1.92,9.16c0-.6.14-.87,1.14-3.25.19-.51,1-2.57,1.19-3a2.18,2.18,0,0,1,2.06-1.28,2.36,2.36,0,0,1,2.47,2.24c0,1.47-1.32,4.54-1.64,5.27-.64,1.37-1.1,2.38-2.48,2.38a2.6,2.6,0,0,1-2.74-2.38m1-22.89c.22-.69,1.09-3.9,1.28-4.22a2.1,2.1,0,0,1,1.92-1.05A2.34,2.34,0,0,1,68,22.08,24.66,24.66,0,0,1,66.39,28a2.06,2.06,0,0,1-2.1,1.56,2.43,2.43,0,0,1-2.61-2.2,17,17,0,0,1,.64-2.15M80.27,40c1.28,0,1.6.59,2.7,2.66.32.59,1.88,3.34,2.19,3.89A2.55,2.55,0,0,1,85.57,48,2.49,2.49,0,0,1,83,50.24a2.57,2.57,0,0,1-2.15-1.46c-1.74-2.7-3-5.77-3-6.51A2.37,2.37,0,0,1,80.27,40m.27-20.37c1.42,0,1.55.41,3.06,3.84C84.89,26.39,85,26.71,85,27.35c0,1.83-1.88,2.2-2.48,2.2-1.42,0-1.92-.92-2.38-1.84C79.35,26.16,78,23,78,21.85a2.47,2.47,0,0,1,2.52-2.19"/><path class="cls-2" d="M99.36,44c.64,5.68,4.36,9.12,10.66,9.12,4.8,0,8.81-1.58,11.21-4.54l6,4.54A20,20,0,0,1,111,60.76c-11.6,0-20.87-8.07-20.87-20.15S99.38,20.45,111,20.45c10.72,0,18.45,7.52,18.45,20.88V44Zm21.5-7.2c-.08-5.6-5.28-9.62-11.24-9.12-4,.33-9.78,3.6-10.5,9.12Z"/><rect class="cls-2" x="133.22" y="39.45" width="16.93" height="6.99"/><path class="cls-2" d="M177.2,19.77l-9.62,14.82.12.11a8.82,8.82,0,0,1,3.73-.68c7.07,0,12,5.83,12,12.78,0,8.31-6.06,13.68-14.26,13.68-8.37,0-14.25-5.14-14.25-13.62,0-4.19,1.53-7.47,3.74-11l10.23-16.12ZM169.39,54a7.3,7.3,0,1,0-7.3-7.3,7.32,7.32,0,0,0,7.3,7.3"/><path class="cls-2" d="M213.38,25.88H197.27l-.17,8a16.52,16.52,0,0,1,4.3-.51c7.85,0,13.35,5.21,13.35,13.29,0,8.59-6.29,13.85-14.49,13.85-6.33,0-11.08-3-12.94-9.16l7.12-1.92A6.34,6.34,0,0,0,201,54a6.69,6.69,0,0,0,7-6.85c0-5.59-4.42-7.74-9.39-7.74a19.36,19.36,0,0,0-8.37,1.92l.4-21.6h22.78Z"/><path class="cls-1" d="M220.54,53a3.57,3.57,0,0,1,3.66,3.47A3.66,3.66,0,1,1,220.54,53"/><path class="cls-1" d="M228.59,37.86h5.2v3.53h.1a6.86,6.86,0,0,1,6.72-4.07c5.89,0,8,4.15,8,8.64V59.8h-5.49V48.7c0-2.42-.18-6.45-4-6.45-3.61,0-5,2.66-5,5.58v12h-5.48Z"/><path class="cls-1" d="M257.38,50.76a5.68,5.68,0,0,0,5.89,5.2,7.2,7.2,0,0,0,5.9-3l3.93,3a11.41,11.41,0,0,1-9.28,4.39c-6.62,0-11.93-4.61-11.93-11.52s5.31-11.51,11.93-11.51c6.13,0,10.29,4.29,10.29,11.92v1.52Zm11.24-4.12c0-3.2-2.14-5.21-5.58-5.21-3.24,0-5.25,2.06-5.66,5.21Z"/><path class="cls-1" d="M276.66,42.53V37.86h4.53V31.51h5.49v6.35h6v4.67h-6v9.6c0,2.19.63,3.56,3.06,3.56a5.77,5.77,0,0,0,3-.68v4.61a11.59,11.59,0,0,1-4.34.73c-5.81,0-7.18-2.6-7.18-7.77v-10Z"/><path class="cls-2" d="M284.91,13.81h-4.62a8.35,8.35,0,1,1-16.7,0H259a8.35,8.35,0,0,1-16.69,0v0h-4.62v0a8.36,8.36,0,0,1-8.35,8.31v4.61A12.94,12.94,0,0,0,240,21.17a12.93,12.93,0,0,0,21.32,0,12.93,12.93,0,0,0,21.33,0,13,13,0,0,0,10.66,5.61V22.16a8.36,8.36,0,0,1-8.35-8.35"/><path class="cls-2" d="M244.55,7.83a4.75,4.75,0,1,1-4.74-4.75,4.74,4.74,0,0,1,4.74,4.75"/><path class="cls-2" d="M265.87,7.83a4.75,4.75,0,1,1-4.74-4.75,4.74,4.74,0,0,1,4.74,4.75"/><path class="cls-2" d="M287.18,7.83a4.74,4.74,0,1,1-4.74-4.75,4.74,4.74,0,0,1,4.74,4.75"/></g></g></svg>